# xmcd
# 
# Track frame offsets:
#     150
#     17488
#     34792
#     50700
#     67216
#     83064
#     100073
#     119071
#     135735
#     155744
# 
# Disc length: 2328
# 
# Revision: 9
# Processed by: cddbd v1.5.2PL0 Copyright (c) Steve Scherf et al.
# Submitted via: fre:ac v1.0.31
# 
DISCID=8b09160a
DTITLE=Zac Brown Band - Welcome Home
DYEAR=2017
DGENRE=Country
TTITLE0=Roots
TTITLE1=Real Thing
TTITLE2=Long Haul
TTITLE3=2 Places At 1 Time
TTITLE4=Family Table
TTITLE5=My Old Man
TTITLE6=Start Over
TTITLE7=Your Majesty
TTITLE8=Trying To Drive (Feat. Aslyn)
TTITLE9=All The Best (Feat. Kacey Musgraves)
EXTD=YEAR: 2017
EXTT0=
EXTT1=
EXTT2=
EXTT3=
EXTT4=
EXTT5=
EXTT6=
EXTT7=
EXTT8=
EXTT9=
PLAYORDER=
